<?xml version="1.0" standalone="no"?>
<!DOCTYPE svg PUBLIC "-//W3C//DTD SVG 20010904//EN"
 "http://www.w3.org/TR/2001/REC-SVG-20010904/DTD/svg10.dtd">
<svg version="1.0" xmlns="http://www.w3.org/2000/svg"
 width="148.000000pt" height="148.000000pt" viewBox="0 0 148.000000 148.000000"
 preserveAspectRatio="xMidYMid meet">

<g transform="translate(0.000000,148.000000) scale(0.100000,-0.100000)"
fill="#000000" stroke="none">
<path d="M0 740 l0 -740 740 0 740 0 0 740 0 740 -740 0 -740 0 0 -740z m690
656 c0 -2 -78 -150 -174 -330 l-175 -326 68 -127 c159 -302 225 -423 231 -423
16 0 301 551 292 564 -5 6 -44 79 -87 163 l-78 152 24 45 c13 25 27 42 31 38
3 -4 55 -98 114 -210 102 -194 106 -204 93 -230 -8 -15 -32 -61 -55 -102 -22
-41 -68 -127 -102 -190 -33 -63 -87 -164 -120 -225 l-59 -110 -49 -3 -49 -3
-34 63 c-19 35 -47 88 -64 118 -36 66 -59 108 -172 314 l-88 158 20 37 c11 20
47 86 79 146 32 61 80 151 106 200 26 50 71 134 100 188 l51 97 49 0 c26 0 48
-2 48 -4z m377 -321 c94 -176 172 -326 172 -333 1 -7 -40 -88 -89 -180 -50
-92 -127 -238 -173 -324 l-82 -157 -47 -1 c-28 0 -48 5 -48 11 0 6 51 106 113
222 63 117 140 260 171 319 l57 108 -74 137 c-41 76 -107 200 -146 276 -40 75
-76 137 -79 137 -4 0 -38 -60 -76 -133 -39 -72 -104 -196 -147 -275 l-76 -143
83 -159 c46 -88 84 -164 84 -170 0 -21 -42 -92 -49 -84 -5 5 -57 100 -116 211
l-107 202 173 318 c94 175 177 324 182 331 6 8 27 12 56 10 l46 -3 172 -320z"/>
</g>
</svg>
